<svg width="470" height="399" viewBox="0 0 470 399" fill="none" xmlns="http://www.w3.org/2000/svg">
<path d="M364.717 136.035C352.634 110.026 333.347 88.0267 309.143 72.643C284.94 57.2594 256.833 49.1367 228.155 49.2375C199.476 49.3383 171.427 57.6584 147.332 73.2118C123.237 88.7652 104.106 110.9 92.2056 136.993L116.771 148.197C126.53 126.801 142.217 108.65 161.975 95.8963C181.733 83.1425 204.733 76.32 228.25 76.2374C251.766 76.1547 274.813 82.8153 294.66 95.4299C314.507 108.044 330.322 126.084 340.231 147.412L364.717 136.035Z" fill="#FFFF01"/>
<path d="M188.326 214.483C194.942 242.448 194.446 268.538 189.017 287.866C183.428 307.76 173.878 317.064 164.995 319.165C156.112 321.267 143.406 317.228 129.496 301.946C115.982 287.099 103.85 263.996 97.2345 236.031C90.6192 208.066 91.115 181.977 96.5442 162.649C102.133 142.754 111.683 133.45 120.566 131.349C129.448 129.248 142.155 133.286 156.065 148.569C169.578 163.416 181.711 186.518 188.326 214.483Z" stroke="#FFFF00" stroke-width="30"/>
<path d="M360.328 236.033C353.712 263.998 341.579 287.1 328.065 301.946C314.155 317.229 301.448 321.267 292.566 319.166C283.683 317.064 274.133 307.76 268.545 287.865C263.116 268.538 262.62 242.448 269.236 214.483C275.852 186.518 287.985 163.416 301.498 148.569C315.409 133.287 328.116 129.249 336.998 131.35C345.881 133.451 355.431 142.755 361.019 162.65C366.448 181.978 366.943 208.068 360.328 236.033Z" stroke="#FFFF00" stroke-width="30"/>
<path d="M130.012 134.452C134.516 130.988 135.268 124.409 131.009 120.648C125.296 115.601 118.749 111.492 111.644 108.524C101.305 104.206 90.1206 102.443 79.1294 103.401C68.1381 104.358 57.6968 108.005 48.7755 114.001C42.6596 118.112 37.3941 123.236 33.1918 129.129C29.9896 133.619 32.1131 139.66 37.0689 142.08L45.3911 146.145C50.3604 148.572 56.273 146.357 60.0472 142.315C61.8089 140.428 63.7938 138.735 65.9712 137.271C70.9668 133.914 76.8135 131.872 82.9682 131.336C89.1229 130.799 95.3859 131.786 101.175 134.205C103.982 135.377 106.634 136.868 109.076 138.637C113.421 141.784 119.441 142.584 123.694 139.312L130.012 134.452Z" fill="#FFFF01"/>
<path d="M423.982 134.416C428.485 130.952 429.237 124.374 424.979 120.612C419.266 115.565 412.719 111.456 405.614 108.489C395.275 104.17 384.09 102.408 373.099 103.365C362.108 104.323 351.667 107.969 342.745 113.965C336.629 118.076 331.364 123.2 327.162 129.093C323.959 133.583 326.083 139.624 331.039 142.044L339.361 146.109C344.33 148.536 350.243 146.322 354.017 142.279C355.779 140.392 357.764 138.699 359.941 137.236C364.936 133.878 370.783 131.836 376.938 131.3C383.093 130.764 389.356 131.751 395.145 134.169C397.952 135.342 400.604 136.832 403.046 138.601C407.391 141.749 413.411 142.548 417.664 139.277L423.982 134.416Z" fill="#FFFF01"/>
</svg>
