<svg width="466" height="385" viewBox="0 0 466 385" fill="none" xmlns="http://www.w3.org/2000/svg">
<path d="M150.865 221H134.388L159.494 148.273H179.31L204.381 221H187.903L169.686 164.892H169.118L150.865 221ZM149.835 192.413H188.756V204.416H149.835V192.413ZM213.134 221V148.273H242.254C247.604 148.273 252.066 149.066 255.641 150.652C259.216 152.238 261.903 154.44 263.702 157.257C265.502 160.051 266.401 163.27 266.401 166.916C266.401 169.757 265.833 172.255 264.697 174.409C263.56 176.54 261.998 178.292 260.009 179.665C258.044 181.014 255.795 181.973 253.262 182.541V183.251C256.032 183.37 258.624 184.151 261.039 185.595C263.477 187.039 265.454 189.063 266.969 191.668C268.485 194.248 269.242 197.326 269.242 200.901C269.242 204.759 268.283 208.204 266.366 211.234C264.472 214.241 261.666 216.62 257.95 218.372C254.233 220.124 249.652 221 244.207 221H213.134ZM228.511 208.429H241.046C245.331 208.429 248.456 207.612 250.421 205.979C252.386 204.321 253.369 202.12 253.369 199.374C253.369 197.361 252.883 195.586 251.913 194.047C250.942 192.508 249.557 191.301 247.758 190.425C245.982 189.549 243.863 189.111 241.401 189.111H228.511V208.429ZM228.511 178.706H239.91C242.017 178.706 243.887 178.339 245.521 177.605C247.178 176.848 248.48 175.782 249.427 174.409C250.397 173.036 250.883 171.391 250.883 169.473C250.883 166.845 249.948 164.726 248.077 163.116C246.231 161.507 243.603 160.702 240.194 160.702H228.511V178.706ZM318.701 169.189C318.417 166.324 317.197 164.099 315.043 162.513C312.889 160.927 309.965 160.134 306.272 160.134C303.762 160.134 301.643 160.489 299.915 161.199C298.187 161.885 296.861 162.844 295.938 164.075C295.038 165.306 294.588 166.703 294.588 168.266C294.541 169.568 294.813 170.704 295.405 171.675C296.021 172.645 296.861 173.486 297.926 174.196C298.992 174.883 300.223 175.486 301.62 176.007C303.016 176.504 304.508 176.93 306.094 177.286L312.628 178.848C315.801 179.558 318.712 180.505 321.364 181.689C324.015 182.873 326.312 184.329 328.253 186.057C330.194 187.785 331.698 189.821 332.763 192.165C333.852 194.509 334.408 197.196 334.432 200.226C334.408 204.677 333.272 208.536 331.023 211.803C328.798 215.046 325.578 217.567 321.364 219.366C317.174 221.142 312.119 222.03 306.201 222.03C300.329 222.03 295.216 221.13 290.86 219.331C286.527 217.532 283.142 214.868 280.703 211.341C278.289 207.79 277.022 203.398 276.904 198.166H291.783C291.949 200.605 292.647 202.641 293.878 204.274C295.133 205.884 296.802 207.103 298.885 207.932C300.992 208.737 303.372 209.139 306.023 209.139C308.627 209.139 310.888 208.76 312.806 208.003C314.747 207.245 316.25 206.192 317.316 204.842C318.381 203.493 318.914 201.942 318.914 200.19C318.914 198.557 318.428 197.184 317.458 196.071C316.511 194.958 315.114 194.011 313.267 193.23C311.444 192.449 309.207 191.739 306.556 191.099L298.637 189.111C292.505 187.619 287.664 185.287 284.113 182.115C280.561 178.943 278.798 174.67 278.821 169.295C278.798 164.892 279.97 161.045 282.337 157.754C284.728 154.464 288.007 151.895 292.174 150.048C296.34 148.202 301.075 147.278 306.378 147.278C311.776 147.278 316.487 148.202 320.512 150.048C324.56 151.895 327.709 154.464 329.958 157.754C332.207 161.045 333.367 164.857 333.438 169.189H318.701Z" fill="#FFFF00"/>
<circle cx="235" cy="192" r="140" stroke="#FFFF00" stroke-width="20"/>
<mask id="path-3-inside-1_63_75" fill="white">
<path d="M92.5025 93.6816C88.6696 89.894 82.4652 89.9108 78.9348 93.9818C67.7669 106.86 58.8597 121.566 52.6174 137.478C45.1856 156.423 41.6865 176.682 42.3331 197.023C42.9796 217.363 47.7583 237.359 56.3783 255.793C63.6186 271.278 73.4418 285.388 85.405 297.531C89.1868 301.369 95.3797 300.992 98.9643 296.969C102.549 292.945 102.163 286.802 98.4192 282.927C88.4128 272.571 80.1737 260.613 74.055 247.528C66.5564 231.491 62.3994 214.097 61.837 196.403C61.2745 178.708 64.3184 161.085 70.7834 144.605C76.0587 131.157 83.5217 118.7 92.8502 107.73C96.3408 103.624 96.3353 97.4691 92.5025 93.6816Z"/>
</mask>
<path d="M92.5025 93.6816C88.6696 89.894 82.4652 89.9108 78.9348 93.9818C67.7669 106.86 58.8597 121.566 52.6174 137.478C45.1856 156.423 41.6865 176.682 42.3331 197.023C42.9796 217.363 47.7583 237.359 56.3783 255.793C63.6186 271.278 73.4418 285.388 85.405 297.531C89.1868 301.369 95.3797 300.992 98.9643 296.969C102.549 292.945 102.163 286.802 98.4192 282.927C88.4128 272.571 80.1737 260.613 74.055 247.528C66.5564 231.491 62.3994 214.097 61.837 196.403C61.2745 178.708 64.3184 161.085 70.7834 144.605C76.0587 131.157 83.5217 118.7 92.8502 107.73C96.3408 103.624 96.3353 97.4691 92.5025 93.6816Z" stroke="#FFFF00" stroke-width="20" mask="url(#path-3-inside-1_63_75)"/>
<mask id="path-4-inside-2_63_75" fill="white">
<path d="M372.588 290.988C376.333 294.863 382.536 294.99 386.159 291.001C397.622 278.385 406.866 263.888 413.474 248.124C421.341 229.355 425.307 209.183 425.13 188.833C424.953 168.483 420.638 148.382 412.446 129.753C405.565 114.106 396.07 99.7726 384.39 87.3571C380.698 83.4323 374.498 83.6665 370.822 87.606C367.145 91.5455 367.389 97.6959 371.042 101.657C380.807 112.241 388.768 124.386 394.583 137.609C401.709 153.814 405.463 171.3 405.617 189.002C405.771 206.705 402.321 224.253 395.477 240.58C389.893 253.902 382.144 266.184 372.565 276.936C368.981 280.959 368.844 287.113 372.588 290.988Z"/>
</mask>
<path d="M372.588 290.988C376.333 294.863 382.536 294.99 386.159 291.001C397.622 278.385 406.866 263.888 413.474 248.124C421.341 229.355 425.307 209.183 425.13 188.833C424.953 168.483 420.638 148.382 412.446 129.753C405.565 114.106 396.07 99.7726 384.39 87.3571C380.698 83.4323 374.498 83.6665 370.822 87.606C367.145 91.5455 367.389 97.6959 371.042 101.657C380.807 112.241 388.768 124.386 394.583 137.609C401.709 153.814 405.463 171.3 405.617 189.002C405.771 206.705 402.321 224.253 395.477 240.58C389.893 253.902 382.144 266.184 372.565 276.936C368.981 280.959 368.844 287.113 372.588 290.988Z" stroke="#FFFF00" stroke-width="20" mask="url(#path-4-inside-2_63_75)"/>
<circle cx="235" cy="192" r="140" stroke="#FFFF00" stroke-width="20"/>
</svg>
