<svg width="432" height="328" viewBox="0 0 432 328" fill="none" xmlns="http://www.w3.org/2000/svg">
<path d="M361.119 75.307L361.111 72.5759C362.617 72.2486 364.479 71.8439 366.622 71.379C372.547 70.0926 380.616 68.3459 389.197 66.5029C402.699 63.6036 417.389 60.4827 427 58.5359V236.989C404.696 228.453 389.849 222.569 379.619 218.516C374.284 216.402 370.206 214.786 366.981 213.552C364.607 212.641 362.709 211.947 361.221 211.469C361.247 207.727 361.262 202.389 361.273 195.963C361.291 182.249 361.28 163.541 361.254 144.695C361.229 125.849 361.188 106.859 361.159 92.5825C361.144 85.444 361.13 79.4833 361.119 75.307Z" stroke="#FFFF00" stroke-width="10"/>
<path d="M118.268 239.717H257.711V276.426H118.268V239.717Z" stroke="#FFFF00" stroke-width="10"/>
<path d="M261.363 42.7728L355.444 72.3585V210.536L261.348 240.654H53.3694L5 211.399V116.16L54.7781 42.7728H261.363Z" stroke="#FFFF00" stroke-width="10"/>
<path d="M143.152 308.674H136.302C136.177 307.868 135.922 307.153 135.536 306.527C135.151 305.892 134.655 305.351 134.05 304.906C133.446 304.46 132.747 304.119 131.955 303.882C131.174 303.645 130.324 303.526 129.406 303.526C127.749 303.526 126.305 303.901 125.075 304.65C123.845 305.389 122.891 306.47 122.213 307.892C121.535 309.305 121.197 311.02 121.197 313.04C121.197 315.116 121.535 316.86 122.213 318.273C122.901 319.686 123.86 320.752 125.09 321.473C126.321 322.193 127.744 322.554 129.359 322.554C130.266 322.554 131.106 322.444 131.877 322.226C132.659 322.009 133.352 321.691 133.957 321.274C134.562 320.847 135.062 320.33 135.458 319.724C135.865 319.117 136.146 318.425 136.302 317.647L143.152 317.676C142.975 319.013 142.531 320.302 141.822 321.544C141.124 322.776 140.181 323.881 138.992 324.857C137.814 325.824 136.407 326.592 134.77 327.161C133.144 327.72 131.304 328 129.25 328C126.394 328 123.84 327.412 121.588 326.237C119.346 325.061 117.574 323.359 116.271 321.132C114.978 318.904 114.332 316.206 114.332 313.04C114.332 309.864 114.989 307.162 116.302 304.934C117.616 302.706 119.398 301.009 121.65 299.843C123.902 298.667 126.435 298.08 129.25 298.08C131.106 298.08 132.826 298.317 134.41 298.791C136.005 299.265 137.418 299.957 138.648 300.867C139.878 301.768 140.879 302.872 141.651 304.18C142.432 305.489 142.933 306.987 143.152 308.674ZM148.007 327.602V298.478H154.778V310.495H168.523V298.478H175.278V327.602H168.523V315.571H154.778V327.602H148.007ZM180.861 327.602V298.478H202.441V303.555H187.632V310.495H201.331V315.571H187.632V322.525H202.503V327.602H180.861ZM236.081 308.674H229.232C229.106 307.868 228.851 307.153 228.465 306.527C228.08 305.892 227.584 305.351 226.98 304.906C226.375 304.46 225.677 304.119 224.884 303.882C224.103 303.645 223.253 303.526 222.335 303.526C220.678 303.526 219.234 303.901 218.004 304.65C216.774 305.389 215.82 306.47 215.142 307.892C214.465 309.305 214.126 311.02 214.126 313.04C214.126 315.116 214.465 316.86 215.142 318.273C215.83 319.686 216.789 320.752 218.019 321.473C219.25 322.193 220.673 322.554 222.289 322.554C223.195 322.554 224.035 322.444 224.806 322.226C225.588 322.009 226.281 321.691 226.886 321.274C227.491 320.847 227.991 320.33 228.387 319.724C228.794 319.117 229.075 318.425 229.232 317.647L236.081 317.676C235.904 319.013 235.46 320.302 234.752 321.544C234.053 322.776 233.109 323.881 231.921 324.857C230.743 325.824 229.336 326.592 227.699 327.161C226.073 327.72 224.233 328 222.179 328C219.323 328 216.769 327.412 214.517 326.237C212.275 325.061 210.503 323.359 209.2 321.132C207.907 318.904 207.261 316.206 207.261 313.04C207.261 309.864 207.918 307.162 209.231 304.934C210.545 302.706 212.328 301.009 214.579 299.843C216.831 298.667 219.364 298.08 222.179 298.08C224.035 298.08 225.755 298.317 227.339 298.791C228.934 299.265 230.347 299.957 231.577 300.867C232.807 301.768 233.808 302.872 234.58 304.18C235.362 305.489 235.862 306.987 236.081 308.674ZM240.936 327.602V298.478H247.707V311.319H248.129L259.654 298.478H267.77L255.885 311.518L267.911 327.602H259.81L251.038 315.628L247.707 319.326V327.602H240.936Z" fill="#FFFF00"/>
<path d="M118.268 5H257.711V41.7082H118.268V5Z" stroke="#FFFF00" stroke-width="10"/>
</svg>
