<svg width="474" height="412" viewBox="0 0 474 412" fill="none" xmlns="http://www.w3.org/2000/svg">
<circle cx="237" cy="206" r="162.5" stroke="#FFFF00" stroke-width="25"/>
<path d="M0 172C0 163.716 6.71573 157 15 157H24.5349C32.8192 157 39.5349 163.716 39.5349 172V211.651V242C39.5349 250.284 32.8192 257 24.5349 257H15C6.71572 257 0 250.284 0 242V172Z" fill="#FFFF00"/>
<path d="M13.9488 339.671C9.55879 332.645 11.6953 323.391 18.7207 319.001L26.8068 313.949C33.8322 309.559 43.0863 311.695 47.4763 318.721L68.4882 352.347L84.5706 378.084C88.9606 385.109 86.8241 394.364 79.7987 398.753L71.7126 403.806C64.6872 408.196 55.4331 406.06 51.0431 399.034L13.9488 339.671Z" fill="#FFFF00"/>
<path d="M388.949 33.6709C384.559 26.6455 386.695 17.3914 393.721 13.0014L401.807 7.94868C408.832 3.55869 418.086 5.69516 422.476 12.7206L443.488 46.3467L459.571 72.084C463.961 79.1095 461.824 88.3635 454.799 92.7535L446.713 97.8062C439.687 102.196 430.433 100.06 426.043 93.0343L388.949 33.6709Z" fill="#FFFF00"/>
<path d="M51.0434 14.7207C55.4334 7.69526 64.6874 5.55879 71.7129 9.94879L79.799 15.0015C86.8244 19.3915 88.9609 28.6456 84.5709 35.671L63.559 69.2971L47.4765 95.0344C43.0865 102.06 33.8325 104.196 26.807 99.8063L18.721 94.7536C11.6955 90.3636 9.55905 81.1095 13.949 74.0841L51.0434 14.7207Z" fill="#FFFF00"/>
<path d="M426.043 318.721C430.433 311.695 439.687 309.559 446.713 313.949L454.799 319.002C461.824 323.392 463.961 332.646 459.571 339.671L438.559 373.297L422.477 399.034C418.087 406.06 408.832 408.196 401.807 403.806L393.721 398.754C386.696 394.364 384.559 385.11 388.949 378.084L426.043 318.721Z" fill="#FFFF00"/>
<path d="M434 171C434 162.716 440.716 156 449 156H458.535C466.819 156 473.535 162.716 473.535 171V210.651V241C473.535 249.284 466.819 256 458.535 256H449C440.716 256 434 249.284 434 241V171Z" fill="#FFFF00"/>
</svg>
