<svg width="421" height="452" viewBox="0 0 421 452" fill="none" xmlns="http://www.w3.org/2000/svg">
<rect x="84.2656" y="152.693" width="23" height="186" rx="10" transform="rotate(-24 84.2656 152.693)" fill="#FFFF00"/>
<rect x="315.583" y="143.43" width="23" height="186" rx="10" transform="rotate(24 315.583 143.43)" fill="#FFFF00"/>
<mask id="path-3-inside-1_70_15" fill="white">
<path d="M329.057 149.058C314.626 130.41 296.002 115.426 274.696 105.324C253.39 95.2206 230.002 90.2831 206.431 90.9116C182.859 91.54 159.768 97.7168 139.03 108.941C118.293 120.165 100.493 136.119 87.0766 155.51L103.224 166.683C114.885 149.83 130.354 135.964 148.377 126.21C166.4 116.455 186.468 111.087 206.954 110.541C227.44 109.995 247.766 114.286 266.283 123.066C284.8 131.846 300.986 144.869 313.528 161.076L329.057 149.058Z"/>
</mask>
<path d="M329.057 149.058C314.626 130.41 296.002 115.426 274.696 105.324C253.39 95.2206 230.002 90.2831 206.431 90.9116C182.859 91.54 159.768 97.7168 139.03 108.941C118.293 120.165 100.493 136.119 87.0766 155.51L103.224 166.683C114.885 149.83 130.354 135.964 148.377 126.21C166.4 116.455 186.468 111.087 206.954 110.541C227.44 109.995 247.766 114.286 266.283 123.066C284.8 131.846 300.986 144.869 313.528 161.076L329.057 149.058Z" stroke="#FFFF00" stroke-width="20" mask="url(#path-3-inside-1_70_15)"/>
<rect x="139" y="274.128" width="63.1826" height="65" rx="10" transform="rotate(-24 139 274.128)" fill="#FFFF00"/>
<rect x="223.438" y="247.43" width="65" height="65" rx="10" transform="rotate(24 223.438 247.43)" fill="#FFFF00"/>
<rect x="197" y="299.43" width="23" height="69" rx="10" fill="#FFFF00"/>
<rect x="197" y="30.4297" width="23" height="143" rx="10" fill="#FFFF00"/>
<path d="M210.122 50.3487C214.412 48.8516 216.734 44.1137 214.554 40.1266C209.583 31.0335 201.869 23.6447 192.415 19.0815C180.472 13.3175 166.729 12.5339 154.208 16.9029C141.688 21.2719 131.416 30.4357 125.652 42.3783C121.089 51.8331 119.647 62.4165 121.412 72.6283C122.186 77.106 126.951 79.3709 131.242 77.8738C135.532 76.3766 137.685 71.6668 137.274 67.1412C136.73 61.1399 137.809 55.0489 140.472 49.5309C144.339 41.5187 151.23 35.3709 159.63 32.4398C168.03 29.5087 177.25 30.0344 185.262 33.9014C190.78 36.5646 195.414 40.6623 198.721 45.6993C201.216 49.4976 205.831 51.8458 210.122 50.3487Z" fill="#FFFF00"/>
<path d="M284.348 76.0843C288.666 77.4988 293.387 75.143 294.075 70.6514C295.644 60.4076 293.999 49.8537 289.256 40.488C283.264 28.6581 272.818 19.693 260.216 15.5649C247.614 11.4369 233.888 12.484 222.058 18.4759C212.693 23.2196 205.123 30.7551 200.327 39.9419C198.224 43.97 200.636 48.6623 204.954 50.0768C209.272 51.4913 213.841 49.0551 216.262 45.2098C219.473 40.11 224.027 35.9239 229.494 33.1553C237.43 29.1353 246.639 28.4328 255.093 31.2023C263.548 33.9719 270.556 39.9865 274.576 47.9232C277.345 53.3894 278.54 59.4589 278.111 65.4698C277.787 70.0022 280.03 74.6698 284.348 76.0843Z" fill="#FFFF00"/>
</svg>
