<svg width="280" height="505" viewBox="0 0 280 505" fill="none" xmlns="http://www.w3.org/2000/svg">
<g filter="url(#filter0_i_49_49)">
<path d="M35.2402 320.071C35.2856 317.578 35.2909 315.858 35.2215 315.066L37.0857 319.698C36.515 319.921 35.8889 320.053 35.2402 320.071ZM40.69 322.553C40.726 320.955 40.7538 319.537 40.7665 318.347C49.4927 315.512 62.3551 313.564 77.8452 312.401C95.4331 311.08 115.81 310.807 136.137 311.152C176.812 311.843 216.877 315.002 233.269 317.046C235.981 317.385 238.703 316.627 240.15 316.224C240.322 316.176 240.476 316.134 240.61 316.098C241.732 315.801 242.247 315.737 242.447 315.722C242.599 315.858 242.926 316.186 243.395 316.878C244.224 318.102 245.161 319.972 246.136 322.558C248.078 327.709 249.883 334.917 251.4 343.55C254.426 360.768 256.175 382.856 255.876 403.682C255.575 424.7 253.193 443.648 248.423 455.029C245.999 460.811 243.439 463.479 241.358 464.35C239.74 465.027 236.91 465.199 231.943 461.514C231.466 461.161 230.524 460.255 229.104 458.575C227.751 456.975 226.171 454.923 224.427 452.519C220.942 447.716 216.951 441.716 213.031 435.566C205.16 423.217 197.81 410.628 195.635 406.383C189.387 394.184 181.5 380.23 172.61 368.949C163.953 357.963 153.339 348.194 141.357 346.679C128.39 345.04 116.779 353.166 106.89 370.737C96.9734 388.358 87.7862 417.014 79.741 460.443C79.4999 461.745 78.6976 462.838 78.0611 463.227C71.5108 467.238 66.9912 467.53 63.7961 466.472C60.4326 465.358 57.0691 462.276 53.9332 456.501C47.6052 444.848 43.9581 425.49 42.0483 404.05C40.16 382.849 40.0307 360.481 40.259 343.377C40.3463 336.842 40.485 331.11 40.5967 326.496C40.6312 325.072 40.6631 323.754 40.69 322.553Z" stroke="#FF0000" stroke-width="11"/>
<path d="M80.9018 122.165C91.8969 115.014 104.448 110.608 117.5 109.316L138.695 107.217C144.677 106.625 150.702 106.605 156.687 107.158L161.606 107.611C186.323 109.892 208.918 122.53 223.799 142.397C229.55 150.074 234.004 158.643 236.983 167.761L250.558 209.312L258.36 236.194C260.393 243.201 261.13 250.52 260.533 257.791C258.034 288.233 233.033 311.921 202.5 312.775L101.533 315.597C68.9974 316.506 40.5888 293.722 34.4133 261.764C32.8788 253.823 32.8064 245.669 34.1997 237.702L44.8617 176.737C48.7799 154.333 61.8347 134.565 80.9018 122.165Z" stroke="#FF0000" stroke-width="11"/>
<path d="M210.349 64.5563L233.936 82.225L22.5726 321.897L-0.000245053 303.302L210.349 64.5563Z" fill="#FF0000"/>
<path d="M1.5 327.302L1.5 304.302H278.5V327.302H1.5Z" fill="#FF0000" stroke="#FF0000" stroke-width="3"/>
<path d="M196 53.5C196 79.1642 170.953 101.5 138 101.5C105.047 101.5 80 79.1642 80 53.5C80 27.8358 105.047 5.5 138 5.5C170.953 5.5 196 27.8358 196 53.5Z" stroke="#FF0000" stroke-width="11"/>
</g>
<defs>
<filter id="filter0_i_49_49" x="0" y="0" width="280" height="476.5" filterUnits="userSpaceOnUse" color-interpolation-filters="sRGB">
<feFlood flood-opacity="0" result="BackgroundImageFix"/>
<feBlend mode="normal" in="SourceGraphic" in2="BackgroundImageFix" result="shape"/>
<feColorMatrix in="SourceAlpha" type="matrix" values="0 0 0 0 0 0 0 0 0 0 0 0 0 0 0 0 0 0 127 0" result="hardAlpha"/>
<feOffset dy="4"/>
<feGaussianBlur stdDeviation="2"/>
<feComposite in2="hardAlpha" operator="arithmetic" k2="-1" k3="1"/>
<feColorMatrix type="matrix" values="0 0 0 0 0 0 0 0 0 0 0 0 0 0 0 0 0 0 0.25 0"/>
<feBlend mode="normal" in2="shape" result="effect1_innerShadow_49_49"/>
</filter>
</defs>
</svg>
