<svg width="782" height="328" viewBox="0 0 782 328" fill="none" xmlns="http://www.w3.org/2000/svg">
<path d="M95 78L356.306 78L356.306 100.336C356.306 111.382 365.26 120.336 376.306 120.336H484.854C489.911 120.336 494.779 118.421 498.481 114.976L518.57 96.2768L598.838 115.938L573.34 142.672H504.533C499.302 142.672 494.28 144.721 490.542 148.381L362.225 274L95 274L95 78Z" stroke="#FFFF00" stroke-width="20"/>
<rect x="210" y="25" width="18" height="60" fill="#FFFF00"/>
<ellipse cx="218" cy="17" rx="72" ry="17" fill="#FFFF00"/>
<mask id="path-4-inside-1_70_13" fill="white">
<path d="M134 77C134 63.0116 129.349 49.3965 120.737 38.1773C112.125 26.9581 100.012 18.7335 86.1976 14.7254C72.3834 10.7173 57.6049 11.1396 44.0578 15.9295C30.5107 20.7194 18.9178 29.6213 11.0014 41.3128C3.08501 53.0042 -0.732461 66.8614 0.116136 80.8255C0.964734 94.7896 6.43412 108.116 15.7117 118.824C24.9893 129.532 37.5801 137.05 51.6136 140.263C65.647 143.475 80.3742 142.21 93.6072 136.655L86.7705 121.327C76.9377 125.454 65.9946 126.394 55.5671 124.007C45.1396 121.62 35.784 116.034 28.8902 108.077C21.9965 100.12 17.9324 90.2186 17.3019 79.8425C16.6713 69.4665 19.5079 59.1699 25.3902 50.4826C31.2725 41.7952 39.8866 35.1806 49.9528 31.6215C60.019 28.0624 71.0001 27.7486 81.2648 30.7268C91.5294 33.705 100.53 39.8163 106.929 48.1528C113.328 56.4892 116.784 66.6059 116.784 77H134Z"/>
</mask>
<path d="M134 77C134 63.0116 129.349 49.3965 120.737 38.1773C112.125 26.9581 100.012 18.7335 86.1976 14.7254C72.3834 10.7173 57.6049 11.1396 44.0578 15.9295C30.5107 20.7194 18.9178 29.6213 11.0014 41.3128C3.08501 53.0042 -0.732461 66.8614 0.116136 80.8255C0.964734 94.7896 6.43412 108.116 15.7117 118.824C24.9893 129.532 37.5801 137.05 51.6136 140.263C65.647 143.475 80.3742 142.21 93.6072 136.655L86.7705 121.327C76.9377 125.454 65.9946 126.394 55.5671 124.007C45.1396 121.62 35.784 116.034 28.8902 108.077C21.9965 100.12 17.9324 90.2186 17.3019 79.8425C16.6713 69.4665 19.5079 59.1699 25.3902 50.4826C31.2725 41.7952 39.8866 35.1806 49.9528 31.6215C60.019 28.0624 71.0001 27.7486 81.2648 30.7268C91.5294 33.705 100.53 39.8163 106.929 48.1528C113.328 56.4892 116.784 66.6059 116.784 77H134Z" stroke="#FFFF00" stroke-width="20" mask="url(#path-4-inside-1_70_13)"/>
<path d="M95 78L356.306 78L356.306 100.336C356.306 111.382 365.26 120.336 376.306 120.336H484.854C489.911 120.336 494.779 118.421 498.481 114.976L518.57 96.2768L598.838 115.938L573.34 142.672H504.533C499.302 142.672 494.28 144.721 490.542 148.381L362.225 274L95 274L95 78Z" stroke="#FFFF00" stroke-width="20"/>
<rect x="210" y="25" width="18" height="60" fill="#FFFF00"/>
<ellipse cx="218" cy="17" rx="72" ry="17" fill="#FFFF00"/>
<mask id="path-8-inside-2_70_13" fill="white">
<path d="M134 77C134 63.0116 129.349 49.3965 120.737 38.1773C112.125 26.9581 100.012 18.7335 86.1976 14.7254C72.3834 10.7173 57.6049 11.1396 44.0578 15.9295C30.5107 20.7194 18.9178 29.6213 11.0014 41.3128C3.08501 53.0042 -0.732461 66.8614 0.116136 80.8255C0.964734 94.7896 6.43412 108.116 15.7117 118.824C24.9893 129.532 37.5801 137.05 51.6136 140.263C65.647 143.475 80.3742 142.21 93.6072 136.655L86.7705 121.327C76.9377 125.454 65.9946 126.394 55.5671 124.007C45.1396 121.62 35.784 116.034 28.8902 108.077C21.9965 100.12 17.9324 90.2186 17.3019 79.8425C16.6713 69.4665 19.5079 59.1699 25.3902 50.4826C31.2725 41.7952 39.8866 35.1806 49.9528 31.6215C60.019 28.0624 71.0001 27.7486 81.2648 30.7268C91.5294 33.705 100.53 39.8163 106.929 48.1528C113.328 56.4892 116.784 66.6059 116.784 77H134Z"/>
</mask>
<path d="M134 77C134 63.0116 129.349 49.3965 120.737 38.1773C112.125 26.9581 100.012 18.7335 86.1976 14.7254C72.3834 10.7173 57.6049 11.1396 44.0578 15.9295C30.5107 20.7194 18.9178 29.6213 11.0014 41.3128C3.08501 53.0042 -0.732461 66.8614 0.116136 80.8255C0.964734 94.7896 6.43412 108.116 15.7117 118.824C24.9893 129.532 37.5801 137.05 51.6136 140.263C65.647 143.475 80.3742 142.21 93.6072 136.655L86.7705 121.327C76.9377 125.454 65.9946 126.394 55.5671 124.007C45.1396 121.62 35.784 116.034 28.8902 108.077C21.9965 100.12 17.9324 90.2186 17.3019 79.8425C16.6713 69.4665 19.5079 59.1699 25.3902 50.4826C31.2725 41.7952 39.8866 35.1806 49.9528 31.6215C60.019 28.0624 71.0001 27.7486 81.2648 30.7268C91.5294 33.705 100.53 39.8163 106.929 48.1528C113.328 56.4892 116.784 66.6059 116.784 77H134Z" stroke="#FFFF00" stroke-width="20" mask="url(#path-8-inside-2_70_13)"/>
<path d="M679.416 184.38C691.336 198.291 691.724 216.983 680.282 226.13C668.84 235.277 649.901 231.415 637.981 217.504C628.188 206.076 624.597 180.881 623.514 166.787C623.224 163.014 626.756 160.182 630.543 161.145C645.11 164.848 669.497 172.804 679.416 184.38Z" fill="#FFFF00"/>
<path d="M610.213 163.8C612.943 170.525 611.419 177.391 606.81 179.137C602.2 180.882 596.251 176.846 593.521 170.121C591.972 166.303 591.987 160.501 592.436 155.536C592.815 151.356 597.539 149.554 600.764 152.365C604.597 155.707 608.638 159.919 610.213 163.8Z" fill="#FFFF00"/>
<path d="M630.687 135.412C637.173 139.008 640.434 145.285 637.969 149.432C635.505 153.579 628.249 154.027 621.763 150.432C618.151 148.429 614.475 144.026 611.631 139.946C609.178 136.428 611.821 131.959 616.203 132.222C621.287 132.527 627.016 133.377 630.687 135.412Z" fill="#FFFF00"/>
</svg>
