<svg width="398" height="455" viewBox="0 0 398 455" fill="none" xmlns="http://www.w3.org/2000/svg">
<mask id="path-1-inside-1_70_11" fill="white">
<rect x="40" width="220" height="150" rx="10"/>
</mask>
<rect x="40" width="220" height="150" rx="10" stroke="#FFFF00" stroke-width="30" mask="url(#path-1-inside-1_70_11)"/>
<rect x="85" y="35" width="130" height="80" rx="10" fill="#FFFF00"/>
<rect x="85" y="35" width="130" height="80" rx="10" stroke="#FFFF00"/>
<path d="M47.5 9.99999C47.5 8.61929 48.6193 7.5 50 7.5H250C251.381 7.5 252.5 8.61929 252.5 10V390C252.5 399.665 260.335 407.5 270 407.5H290C291.381 407.5 292.5 408.619 292.5 410V445C292.5 446.381 291.381 447.5 290 447.5H206H131H10C8.61928 447.5 7.5 446.381 7.5 445V410C7.5 408.619 8.61928 407.5 10 407.5H30C39.665 407.5 47.5 399.665 47.5 390V9.99999Z" stroke="#FFFF00" stroke-width="15"/>
<path d="M252 241.25C252 236.694 255.694 233 260.25 233H336.082H345C350.523 233 355 237.477 355 243V275.5C355 279.642 351.642 283 347.5 283C343.358 283 340 279.642 340 275.5V259.5C340 253.977 335.523 249.5 330 249.5H260.25C255.694 249.5 252 245.806 252 241.25Z" fill="#FFFF00"/>
<path d="M340 279.5C340 275.358 343.358 272 347.5 272C351.642 272 355 275.358 355 279.5V388.5C355 394.023 359.477 398.5 365 398.5H371.5C377.023 398.5 381.5 394.023 381.5 388.5V184C381.5 178.477 377.023 174 371.5 174H357C351.477 174 347 169.523 347 164V121C347 115.477 351.477 111 357 111H371.5C377.023 111 381.5 106.523 381.5 101V85.25C381.5 80.1414 377.359 76 372.25 76C367.141 76 363 71.8586 363 66.75V33.75C363 28.6414 367.141 24.5 372.25 24.5C377.359 24.5 381.5 28.6414 381.5 33.75V53.25C381.5 57.8063 385.194 61.5 389.75 61.5C394.306 61.5 398 65.1937 398 69.75V111V384V403C398 408.523 393.523 413 388 413H363H350C344.477 413 340 408.523 340 403V279.5Z" fill="#FFFF00"/>
</svg>
