<svg width="530" height="492" viewBox="0 0 530 492" fill="none" xmlns="http://www.w3.org/2000/svg">
<g filter="url(#filter0_i_49_55)">
<path d="M51.4205 291V72.8182H125.142C142.259 72.8182 156.25 75.9077 167.116 82.0866C178.054 88.1946 186.151 96.4688 191.406 106.909C196.662 117.349 199.29 128.997 199.29 141.852C199.29 154.707 196.662 166.391 191.406 176.902C186.222 187.413 178.196 195.794 167.33 202.044C156.463 208.223 142.543 211.312 125.568 211.312H72.7273V187.875H124.716C136.435 187.875 145.845 185.851 152.947 181.803C160.05 177.754 165.199 172.286 168.395 165.396C171.662 158.436 173.295 150.588 173.295 141.852C173.295 133.116 171.662 125.304 168.395 118.415C165.199 111.526 160.014 106.128 152.841 102.222C145.668 98.2443 136.151 96.2557 124.29 96.2557H77.8409V291H51.4205Z" fill="#00FF00"/>
</g>
<g filter="url(#filter1_i_49_55)">
<path d="M133.755 291.819C141.865 298.624 151.393 303.578 161.794 306.397C172.196 309.217 183.268 309.848 194.379 308.253C205.489 306.658 216.42 302.869 226.547 297.103C236.675 291.336 245.8 283.705 253.403 274.644C261.005 265.584 266.936 255.272 270.856 244.297C274.776 233.322 276.61 221.9 276.251 210.681C275.892 199.463 273.349 188.668 268.766 178.914C264.182 169.16 257.649 160.637 249.54 153.832L241.061 163.936C247.983 169.745 253.56 177.019 257.472 185.345C261.383 193.671 263.555 202.884 263.861 212.46C264.167 222.035 262.602 231.785 259.256 241.153C255.91 250.52 250.848 259.322 244.358 267.055C237.869 274.789 230.08 281.303 221.436 286.225C212.792 291.147 203.462 294.381 193.979 295.742C184.496 297.103 175.045 296.565 166.166 294.158C157.288 291.751 149.155 287.523 142.233 281.715L133.755 291.819Z" fill="#00FF00"/>
</g>
<g filter="url(#filter2_i_49_55)">
<path d="M128.473 322.127C137.466 329.673 148.406 334.717 160.671 336.972C172.935 339.227 186.283 338.649 199.953 335.271C213.623 331.893 227.347 325.781 240.341 317.284C253.335 308.786 265.345 298.071 275.684 285.748C286.024 273.425 294.492 259.737 300.604 245.465C306.715 231.193 310.352 216.616 311.305 202.568C312.258 188.519 310.509 175.273 306.158 163.587C301.808 151.9 294.94 142.001 285.948 134.456L274.417 148.198C282.092 154.639 287.954 163.088 291.668 173.063C295.381 183.038 296.874 194.344 296.06 206.335C295.247 218.326 292.143 230.768 286.926 242.95C281.71 255.132 274.482 266.815 265.656 277.333C256.831 287.851 246.58 296.998 235.489 304.251C224.398 311.504 212.684 316.721 201.016 319.604C189.348 322.487 177.955 322.981 167.487 321.056C157.018 319.131 147.68 314.825 140.005 308.385L128.473 322.127Z" fill="#00FF00"/>
</g>
<g filter="url(#filter3_i_49_55)">
<path d="M148.155 276.253C153.43 280.68 159.749 283.759 166.751 285.313C173.752 286.868 181.298 286.869 188.959 285.315C196.62 283.761 204.245 280.684 211.399 276.258C218.554 271.832 225.097 266.145 230.655 259.52C236.214 252.896 240.678 245.465 243.795 237.651C246.911 229.837 248.618 221.793 248.818 213.979C249.017 206.164 247.706 198.733 244.959 192.108C242.212 185.483 238.083 179.795 232.807 175.368L226.609 182.755C231.112 186.534 234.636 191.389 236.981 197.044C239.326 202.698 240.445 209.042 240.274 215.711C240.104 222.381 238.647 229.247 235.987 235.917C233.327 242.587 229.516 248.929 224.772 254.584C220.027 260.238 214.442 265.092 208.336 268.87C202.23 272.648 195.721 275.275 189.182 276.601C182.643 277.927 176.202 277.926 170.226 276.599C164.25 275.272 158.857 272.644 154.353 268.866L148.155 276.253Z" fill="#00FF00"/>
</g>
<g filter="url(#filter4_i_49_55)">
<rect x="290" y="379" width="178" height="25" rx="10" fill="#00FF00"/>
</g>
<g filter="url(#filter5_i_49_55)">
<path d="M367.141 224.483C371.737 214.252 386.263 214.252 390.859 224.483L443.949 342.673C447.813 351.275 441.521 361 432.091 361H325.909C316.479 361 310.187 351.275 314.051 342.673L367.141 224.483Z" stroke="#00FF00" stroke-width="14"/>
</g>
<defs>
<filter id="filter0_i_49_55" x="51.4209" y="72.8181" width="147.869" height="222.182" filterUnits="userSpaceOnUse" color-interpolation-filters="sRGB">
<feFlood flood-opacity="0" result="BackgroundImageFix"/>
<feBlend mode="normal" in="SourceGraphic" in2="BackgroundImageFix" result="shape"/>
<feColorMatrix in="SourceAlpha" type="matrix" values="0 0 0 0 0 0 0 0 0 0 0 0 0 0 0 0 0 0 127 0" result="hardAlpha"/>
<feOffset dy="4"/>
<feGaussianBlur stdDeviation="2"/>
<feComposite in2="hardAlpha" operator="arithmetic" k2="-1" k3="1"/>
<feColorMatrix type="matrix" values="0 0 0 0 0 0 0 0 0 0 0 0 0 0 0 0 0 0 0.25 0"/>
<feBlend mode="normal" in2="shape" result="effect1_innerShadow_49_55"/>
</filter>
<filter id="filter1_i_49_55" x="133.755" y="153.832" width="142.54" height="159.28" filterUnits="userSpaceOnUse" color-interpolation-filters="sRGB">
<feFlood flood-opacity="0" result="BackgroundImageFix"/>
<feBlend mode="normal" in="SourceGraphic" in2="BackgroundImageFix" result="shape"/>
<feColorMatrix in="SourceAlpha" type="matrix" values="0 0 0 0 0 0 0 0 0 0 0 0 0 0 0 0 0 0 127 0" result="hardAlpha"/>
<feOffset dy="4"/>
<feGaussianBlur stdDeviation="2"/>
<feComposite in2="hardAlpha" operator="arithmetic" k2="-1" k3="1"/>
<feColorMatrix type="matrix" values="0 0 0 0 0 0 0 0 0 0 0 0 0 0 0 0 0 0 0.25 0"/>
<feBlend mode="normal" in2="shape" result="effect1_innerShadow_49_55"/>
</filter>
<filter id="filter2_i_49_55" x="128.474" y="134.456" width="183.084" height="207.865" filterUnits="userSpaceOnUse" color-interpolation-filters="sRGB">
<feFlood flood-opacity="0" result="BackgroundImageFix"/>
<feBlend mode="normal" in="SourceGraphic" in2="BackgroundImageFix" result="shape"/>
<feColorMatrix in="SourceAlpha" type="matrix" values="0 0 0 0 0 0 0 0 0 0 0 0 0 0 0 0 0 0 127 0" result="hardAlpha"/>
<feOffset dy="4"/>
<feGaussianBlur stdDeviation="2"/>
<feComposite in2="hardAlpha" operator="arithmetic" k2="-1" k3="1"/>
<feColorMatrix type="matrix" values="0 0 0 0 0 0 0 0 0 0 0 0 0 0 0 0 0 0 0.25 0"/>
<feBlend mode="normal" in2="shape" result="effect1_innerShadow_49_55"/>
</filter>
<filter id="filter3_i_49_55" x="148.154" y="175.368" width="100.684" height="115.112" filterUnits="userSpaceOnUse" color-interpolation-filters="sRGB">
<feFlood flood-opacity="0" result="BackgroundImageFix"/>
<feBlend mode="normal" in="SourceGraphic" in2="BackgroundImageFix" result="shape"/>
<feColorMatrix in="SourceAlpha" type="matrix" values="0 0 0 0 0 0 0 0 0 0 0 0 0 0 0 0 0 0 127 0" result="hardAlpha"/>
<feOffset dy="4"/>
<feGaussianBlur stdDeviation="2"/>
<feComposite in2="hardAlpha" operator="arithmetic" k2="-1" k3="1"/>
<feColorMatrix type="matrix" values="0 0 0 0 0 0 0 0 0 0 0 0 0 0 0 0 0 0 0.25 0"/>
<feBlend mode="normal" in2="shape" result="effect1_innerShadow_49_55"/>
</filter>
<filter id="filter4_i_49_55" x="290" y="379" width="178" height="29" filterUnits="userSpaceOnUse" color-interpolation-filters="sRGB">
<feFlood flood-opacity="0" result="BackgroundImageFix"/>
<feBlend mode="normal" in="SourceGraphic" in2="BackgroundImageFix" result="shape"/>
<feColorMatrix in="SourceAlpha" type="matrix" values="0 0 0 0 0 0 0 0 0 0 0 0 0 0 0 0 0 0 127 0" result="hardAlpha"/>
<feOffset dy="4"/>
<feGaussianBlur stdDeviation="2"/>
<feComposite in2="hardAlpha" operator="arithmetic" k2="-1" k3="1"/>
<feColorMatrix type="matrix" values="0 0 0 0 0 0 0 0 0 0 0 0 0 0 0 0 0 0 0.25 0"/>
<feBlend mode="normal" in2="shape" result="effect1_innerShadow_49_55"/>
</filter>
<filter id="filter5_i_49_55" x="305.887" y="209.81" width="146.227" height="162.19" filterUnits="userSpaceOnUse" color-interpolation-filters="sRGB">
<feFlood flood-opacity="0" result="BackgroundImageFix"/>
<feBlend mode="normal" in="SourceGraphic" in2="BackgroundImageFix" result="shape"/>
<feColorMatrix in="SourceAlpha" type="matrix" values="0 0 0 0 0 0 0 0 0 0 0 0 0 0 0 0 0 0 127 0" result="hardAlpha"/>
<feOffset dy="4"/>
<feGaussianBlur stdDeviation="2"/>
<feComposite in2="hardAlpha" operator="arithmetic" k2="-1" k3="1"/>
<feColorMatrix type="matrix" values="0 0 0 0 0 0 0 0 0 0 0 0 0 0 0 0 0 0 0.25 0"/>
<feBlend mode="normal" in2="shape" result="effect1_innerShadow_49_55"/>
</filter>
</defs>
</svg>
