<svg width="466" height="385" viewBox="0 0 466 385" fill="none" xmlns="http://www.w3.org/2000/svg">
<circle cx="235" cy="192" r="140" stroke="#FFFF00" stroke-width="20"/>
<mask id="path-2-inside-1_70_12" fill="white">
<path d="M92.5025 93.6817C88.6696 89.8941 82.4652 89.9109 78.9348 93.9819C67.7669 106.86 58.8597 121.566 52.6174 137.478C45.1856 156.423 41.6865 176.682 42.3331 197.023C42.9796 217.363 47.7583 237.359 56.3783 255.793C63.6186 271.278 73.4418 285.388 85.405 297.531C89.1868 301.369 95.3797 300.992 98.9643 296.969C102.549 292.945 102.163 286.802 98.4192 282.927C88.4128 272.571 80.1737 260.613 74.055 247.528C66.5564 231.491 62.3994 214.097 61.837 196.403C61.2745 178.709 64.3184 161.085 70.7834 144.605C76.0587 131.157 83.5217 118.7 92.8502 107.73C96.3408 103.625 96.3353 97.4693 92.5025 93.6817Z"/>
</mask>
<path d="M92.5025 93.6817C88.6696 89.8941 82.4652 89.9109 78.9348 93.9819C67.7669 106.86 58.8597 121.566 52.6174 137.478C45.1856 156.423 41.6865 176.682 42.3331 197.023C42.9796 217.363 47.7583 237.359 56.3783 255.793C63.6186 271.278 73.4418 285.388 85.405 297.531C89.1868 301.369 95.3797 300.992 98.9643 296.969C102.549 292.945 102.163 286.802 98.4192 282.927C88.4128 272.571 80.1737 260.613 74.055 247.528C66.5564 231.491 62.3994 214.097 61.837 196.403C61.2745 178.709 64.3184 161.085 70.7834 144.605C76.0587 131.157 83.5217 118.7 92.8502 107.73C96.3408 103.625 96.3353 97.4693 92.5025 93.6817Z" stroke="#FFFF00" stroke-width="20" mask="url(#path-2-inside-1_70_12)"/>
<mask id="path-3-inside-2_70_12" fill="white">
<path d="M372.588 290.988C376.333 294.863 382.536 294.989 386.159 291.001C397.622 278.384 406.866 263.888 413.474 248.124C421.341 229.355 425.307 209.182 425.13 188.833C424.953 168.483 420.638 148.382 412.446 129.753C405.565 114.106 396.07 99.7725 384.39 87.357C380.698 83.4322 374.498 83.6664 370.822 87.6059C367.145 91.5454 367.389 97.6958 371.042 101.656C380.807 112.241 388.768 124.385 394.583 137.609C401.709 153.814 405.463 171.3 405.617 189.002C405.771 206.705 402.321 224.253 395.477 240.58C389.893 253.902 382.144 266.183 372.565 276.936C368.981 280.959 368.844 287.113 372.588 290.988Z"/>
</mask>
<path d="M372.588 290.988C376.333 294.863 382.536 294.989 386.159 291.001C397.622 278.384 406.866 263.888 413.474 248.124C421.341 229.355 425.307 209.182 425.13 188.833C424.953 168.483 420.638 148.382 412.446 129.753C405.565 114.106 396.07 99.7725 384.39 87.357C380.698 83.4322 374.498 83.6664 370.822 87.6059C367.145 91.5454 367.389 97.6958 371.042 101.656C380.807 112.241 388.768 124.385 394.583 137.609C401.709 153.814 405.463 171.3 405.617 189.002C405.771 206.705 402.321 224.253 395.477 240.58C389.893 253.902 382.144 266.183 372.565 276.936C368.981 280.959 368.844 287.113 372.588 290.988Z" stroke="#FFFF00" stroke-width="20" mask="url(#path-3-inside-2_70_12)"/>
<circle cx="235" cy="192" r="140" stroke="#FFFF00" stroke-width="20"/>
<rect x="221" y="100" width="28" height="117" rx="10" fill="#FFFF00"/>
<rect x="221" y="241" width="28" height="30" rx="10" fill="#FFFF00"/>
</svg>
