<svg width="545" height="305" viewBox="0 0 545 305" fill="none" xmlns="http://www.w3.org/2000/svg">
<rect x="244" y="59" width="15" height="187" fill="#00FF00"/>
<rect y="152.607" width="15" height="215" transform="rotate(-45 0 152.607)" fill="#00FF00"/>
<rect x="534.028" y="142" width="15" height="215" transform="rotate(45 534.028 142)" fill="#00FF00"/>
<rect x="152.421" width="15" height="215" transform="rotate(45 152.421 0)" fill="#00FF00"/>
<rect x="382" y="10.6064" width="15" height="215" transform="rotate(-45 382 10.6064)" fill="#00FF00"/>
<rect x="152" y="246" width="15" height="107" transform="rotate(-90 152 246)" fill="#00FF00"/>
<rect x="152" y="74" width="15" height="107" transform="rotate(-90 152 74)" fill="#00FF00"/>
<rect x="167" y="74" width="15" height="74" transform="rotate(-180 167 74)" fill="#00FF00"/>
<rect x="393" y="305" width="15" height="74" transform="rotate(-180 393 305)" fill="#00FF00"/>
<rect x="393" y="74" width="15" height="74" transform="rotate(-180 393 74)" fill="#00FF00"/>
<rect x="167" y="305" width="15" height="74" transform="rotate(-180 167 305)" fill="#00FF00"/>
<rect x="286" y="246" width="15" height="107" transform="rotate(-90 286 246)" fill="#00FF00"/>
<rect x="286" y="74" width="15" height="107" transform="rotate(-90 286 74)" fill="#00FF00"/>
<rect x="286" y="59" width="15" height="187" fill="#00FF00"/>
</svg>
