<svg width="419" height="476" viewBox="0 0 419 476" fill="none" xmlns="http://www.w3.org/2000/svg">
<rect x="117.623" y="141.418" width="17" height="185.828" transform="rotate(-38.8475 117.623 141.418)" fill="#00FF00"/>
<rect x="27.3213" y="29.4668" width="17" height="73.8734" transform="rotate(-38.8475 27.3213 29.4668)" fill="#00FF00"/>
<path d="M99.3693 350.007C97.7134 350.065 96.3242 348.77 96.2664 347.114L95.7076 331.111C95.6495 329.446 96.9579 328.053 98.6225 328.007L140.132 326.854C141.773 326.809 143.146 328.09 143.213 329.73L143.857 345.434C143.925 347.096 142.627 348.497 140.964 348.555L99.3693 350.007Z" fill="#00FF00"/>
<path d="M102.378 271.128C100.845 270.499 100.112 268.747 100.741 267.214L106.817 252.398C107.449 250.857 109.215 250.126 110.751 250.769L149.058 266.8C150.572 267.434 151.295 269.166 150.682 270.689L144.807 285.266C144.185 286.81 142.425 287.552 140.886 286.921L102.378 271.128Z" fill="#00FF00"/>
<path d="M390.845 245.15C392.264 244.295 394.108 244.753 394.962 246.173L403.222 259.891C404.081 261.318 403.613 263.171 402.181 264.02L366.453 285.184C365.041 286.021 363.219 285.567 362.364 284.166L354.175 270.751C353.308 269.33 353.763 267.476 355.188 266.618L390.845 245.15Z" fill="#00FF00"/>
<path d="M336.917 185.074C337.856 183.709 339.724 183.364 341.089 184.304L354.278 193.385C355.65 194.329 355.99 196.21 355.036 197.575L331.243 231.608C330.303 232.954 328.456 233.293 327.098 232.371L314.099 223.537C312.723 222.602 312.371 220.725 313.314 219.354L336.917 185.074Z" fill="#00FF00"/>
<path d="M242.733 154.603C242.738 152.946 244.085 151.606 245.742 151.611L261.755 151.658C263.42 151.663 264.763 153.023 264.746 154.689L264.328 196.212C264.311 197.854 262.979 199.177 261.338 199.182L245.621 199.232C243.957 199.237 242.606 197.887 242.611 196.223L242.733 154.603Z" fill="#00FF00"/>
<path d="M367.369 340.181C365.713 340.239 364.324 338.944 364.266 337.288L363.708 321.285C363.649 319.62 364.958 318.227 366.622 318.181L408.132 317.028C409.773 316.983 411.146 318.264 411.213 319.904L411.857 335.608C411.925 337.27 410.627 338.671 408.964 338.729L367.369 340.181Z" fill="#00FF00"/>
<path d="M346.783 377.214C344.126 375.158 346.34 370.956 349.538 371.985L388.322 384.471C389.79 384.944 390.661 386.452 390.335 387.96L387.094 402.973C386.629 405.13 384.072 406.063 382.326 404.712L346.783 377.214Z" fill="#00FF00"/>
<path d="M163.389 381.59C166.533 380.314 169.047 384.417 166.481 386.638L132.446 416.101C131.002 417.351 128.772 416.951 127.853 415.277L120.826 402.488C119.962 400.914 120.663 398.939 122.327 398.264L163.389 381.59Z" fill="#00FF00"/>
<path d="M384.962 405.411C386.306 406.38 388.184 406.079 389.129 404.718C406.22 380.106 416.299 351.286 418.252 321.347C420.271 290.41 413.533 259.529 398.81 232.245C384.086 204.961 361.974 182.377 335.007 167.081C308.039 151.786 277.308 144.397 246.335 145.763C215.362 147.128 185.4 157.193 159.883 174.802C134.367 192.412 114.328 216.854 102.063 245.328C89.7979 273.802 85.8035 305.156 90.5372 335.796C95.1181 365.446 107.694 393.268 126.885 416.28C127.946 417.552 129.843 417.688 131.096 416.603L144.691 404.84C145.944 403.756 146.078 401.863 145.021 400.587C128.775 380.985 118.127 357.333 114.234 332.135C110.188 305.947 113.602 279.15 124.085 254.814C134.567 230.478 151.694 209.588 173.503 194.537C195.311 179.486 220.919 170.885 247.391 169.717C273.863 168.55 300.128 174.865 323.177 187.938C346.225 201.011 365.124 220.313 377.708 243.632C390.292 266.951 396.051 293.344 394.325 319.786C392.665 345.228 384.139 369.726 369.682 390.682C368.741 392.046 369.041 393.92 370.385 394.889L384.962 405.411Z" fill="#00FF00"/>
<circle cx="253.603" cy="298.603" r="30" fill="#00FF00"/>
<path d="M39.9837 104.833L125.277 45.4618L134.048 149.014L39.9837 104.833Z" stroke="#00FF00" stroke-width="15"/>
</svg>
