<svg width="530" height="446" viewBox="0 0 530 446" fill="none" xmlns="http://www.w3.org/2000/svg">
<g filter="url(#filter0_i_49_2)">
<rect x="67" y="77" width="142" height="17" rx="5" fill="#0000FF"/>
</g>
<g filter="url(#filter1_i_49_2)">
<rect x="67" y="185" width="142" height="17" rx="5" fill="#0000FF"/>
</g>
<g filter="url(#filter2_i_49_2)">
<rect x="67" y="293" width="142" height="17" rx="5" fill="#0000FF"/>
</g>
<g filter="url(#filter3_i_49_2)">
<path d="M259 41C259 35.2291 263.526 31.4158 268.137 31.8044C287.112 33.4035 305.722 37.3737 323.356 43.5986C346.894 51.9074 368.189 64.0543 386.056 79.2816C403.922 94.5067 417.992 112.494 427.554 132.167C437.112 151.833 442 172.838 442 194C442 215.162 437.112 236.167 427.554 255.833C417.992 275.506 403.922 293.493 386.056 308.718C368.188 323.946 346.894 336.093 323.356 344.401C305.722 350.626 287.112 354.597 268.137 356.196C263.526 356.584 259 352.771 259 347L259 194V41Z" stroke="#0000FF" stroke-width="20"/>
</g>
<defs>
<filter id="filter0_i_49_2" x="67" y="77" width="142" height="21" filterUnits="userSpaceOnUse" color-interpolation-filters="sRGB">
<feFlood flood-opacity="0" result="BackgroundImageFix"/>
<feBlend mode="normal" in="SourceGraphic" in2="BackgroundImageFix" result="shape"/>
<feColorMatrix in="SourceAlpha" type="matrix" values="0 0 0 0 0 0 0 0 0 0 0 0 0 0 0 0 0 0 127 0" result="hardAlpha"/>
<feOffset dy="4"/>
<feGaussianBlur stdDeviation="2"/>
<feComposite in2="hardAlpha" operator="arithmetic" k2="-1" k3="1"/>
<feColorMatrix type="matrix" values="0 0 0 0 0 0 0 0 0 0 0 0 0 0 0 0 0 0 0.25 0"/>
<feBlend mode="normal" in2="shape" result="effect1_innerShadow_49_2"/>
</filter>
<filter id="filter1_i_49_2" x="67" y="185" width="142" height="21" filterUnits="userSpaceOnUse" color-interpolation-filters="sRGB">
<feFlood flood-opacity="0" result="BackgroundImageFix"/>
<feBlend mode="normal" in="SourceGraphic" in2="BackgroundImageFix" result="shape"/>
<feColorMatrix in="SourceAlpha" type="matrix" values="0 0 0 0 0 0 0 0 0 0 0 0 0 0 0 0 0 0 127 0" result="hardAlpha"/>
<feOffset dy="4"/>
<feGaussianBlur stdDeviation="2"/>
<feComposite in2="hardAlpha" operator="arithmetic" k2="-1" k3="1"/>
<feColorMatrix type="matrix" values="0 0 0 0 0 0 0 0 0 0 0 0 0 0 0 0 0 0 0.25 0"/>
<feBlend mode="normal" in2="shape" result="effect1_innerShadow_49_2"/>
</filter>
<filter id="filter2_i_49_2" x="67" y="293" width="142" height="21" filterUnits="userSpaceOnUse" color-interpolation-filters="sRGB">
<feFlood flood-opacity="0" result="BackgroundImageFix"/>
<feBlend mode="normal" in="SourceGraphic" in2="BackgroundImageFix" result="shape"/>
<feColorMatrix in="SourceAlpha" type="matrix" values="0 0 0 0 0 0 0 0 0 0 0 0 0 0 0 0 0 0 127 0" result="hardAlpha"/>
<feOffset dy="4"/>
<feGaussianBlur stdDeviation="2"/>
<feComposite in2="hardAlpha" operator="arithmetic" k2="-1" k3="1"/>
<feColorMatrix type="matrix" values="0 0 0 0 0 0 0 0 0 0 0 0 0 0 0 0 0 0 0.25 0"/>
<feBlend mode="normal" in2="shape" result="effect1_innerShadow_49_2"/>
</filter>
<filter id="filter3_i_49_2" x="249" y="21.7739" width="203" height="348.452" filterUnits="userSpaceOnUse" color-interpolation-filters="sRGB">
<feFlood flood-opacity="0" result="BackgroundImageFix"/>
<feBlend mode="normal" in="SourceGraphic" in2="BackgroundImageFix" result="shape"/>
<feColorMatrix in="SourceAlpha" type="matrix" values="0 0 0 0 0 0 0 0 0 0 0 0 0 0 0 0 0 0 127 0" result="hardAlpha"/>
<feOffset dy="4"/>
<feGaussianBlur stdDeviation="2"/>
<feComposite in2="hardAlpha" operator="arithmetic" k2="-1" k3="1"/>
<feColorMatrix type="matrix" values="0 0 0 0 0 0 0 0 0 0 0 0 0 0 0 0 0 0 0.25 0"/>
<feBlend mode="normal" in2="shape" result="effect1_innerShadow_49_2"/>
</filter>
</defs>
</svg>
