<svg width="782" height="328" viewBox="0 0 782 328" fill="none" xmlns="http://www.w3.org/2000/svg">
<path d="M105 88L398.5 88V117C398.5 128.046 407.454 137 418.5 137H540.957C546.144 137 551.128 134.985 554.857 131.38L577.94 109.066L670.312 132.565L639.607 166H562.191C556.829 166 551.692 168.153 547.932 171.976L404.309 318H105L105 88Z" stroke="#FF0000" stroke-width="20"/>
<rect x="234" y="29" width="20" height="69" fill="#FF0000"/>
<ellipse cx="243" cy="19.5" rx="80" ry="19.5" fill="#FF0000"/>
<mask id="path-4-inside-1_70_16" fill="white">
<path d="M150 89C150 72.8596 144.793 57.1498 135.153 44.2046C125.513 31.2593 111.953 21.7694 96.4898 17.1447C81.0262 12.52 64.4831 13.0072 49.3185 18.534C34.1538 24.0608 21.1767 34.3323 12.315 47.8224C3.45337 61.3126 -0.819919 77.3016 0.130003 93.414C1.07993 109.526 7.20238 124.903 17.5878 137.258C27.9732 149.613 42.0673 158.289 57.7764 161.996C73.4854 165.702 89.9711 164.242 104.784 157.832L97.1312 140.146C86.1243 144.909 73.8746 145.994 62.202 143.239C50.5294 140.485 40.0567 134.039 32.3398 124.858C24.6229 115.677 20.0736 104.252 19.3678 92.2798C18.662 80.3075 21.8372 68.4268 28.4219 58.403C35.0065 48.3791 44.6492 40.7469 55.9173 36.6402C67.1854 32.5335 79.4778 32.1714 90.968 35.6079C102.458 39.0443 112.533 46.0958 119.697 55.7147C126.86 65.3337 130.729 77.0069 130.729 89H150Z"/>
</mask>
<path d="M150 89C150 72.8596 144.793 57.1498 135.153 44.2046C125.513 31.2593 111.953 21.7694 96.4898 17.1447C81.0262 12.52 64.4831 13.0072 49.3185 18.534C34.1538 24.0608 21.1767 34.3323 12.315 47.8224C3.45337 61.3126 -0.819919 77.3016 0.130003 93.414C1.07993 109.526 7.20238 124.903 17.5878 137.258C27.9732 149.613 42.0673 158.289 57.7764 161.996C73.4854 165.702 89.9711 164.242 104.784 157.832L97.1312 140.146C86.1243 144.909 73.8746 145.994 62.202 143.239C50.5294 140.485 40.0567 134.039 32.3398 124.858C24.6229 115.677 20.0736 104.252 19.3678 92.2798C18.662 80.3075 21.8372 68.4268 28.4219 58.403C35.0065 48.3791 44.6492 40.7469 55.9173 36.6402C67.1854 32.5335 79.4778 32.1714 90.968 35.6079C102.458 39.0443 112.533 46.0958 119.697 55.7147C126.86 65.3337 130.729 77.0069 130.729 89H150Z" stroke="#FF0000" stroke-width="20" mask="url(#path-4-inside-1_70_16)"/>
<path d="M105 88L398.5 88V117C398.5 128.046 407.454 137 418.5 137H540.957C546.144 137 551.128 134.985 554.857 131.38L577.94 109.066L670.312 132.565L639.607 166H562.191C556.829 166 551.692 168.153 547.932 171.976L404.309 318H105L105 88Z" stroke="#FF0000" stroke-width="20"/>
<rect x="234" y="29" width="20" height="69" fill="#FF0000"/>
<ellipse cx="243" cy="19.5" rx="80" ry="19.5" fill="#FF0000"/>
<mask id="path-8-inside-2_70_16" fill="white">
<path d="M150 89C150 72.8596 144.793 57.1498 135.153 44.2046C125.513 31.2593 111.953 21.7694 96.4898 17.1447C81.0262 12.52 64.4831 13.0072 49.3185 18.534C34.1538 24.0608 21.1767 34.3323 12.315 47.8224C3.45337 61.3126 -0.819919 77.3016 0.130003 93.414C1.07993 109.526 7.20238 124.903 17.5878 137.258C27.9732 149.613 42.0673 158.289 57.7764 161.996C73.4854 165.702 89.9711 164.242 104.784 157.832L97.1312 140.146C86.1243 144.909 73.8746 145.994 62.202 143.239C50.5294 140.485 40.0567 134.039 32.3398 124.858C24.6229 115.677 20.0736 104.252 19.3678 92.2798C18.662 80.3075 21.8372 68.4268 28.4219 58.403C35.0065 48.3791 44.6492 40.7469 55.9173 36.6402C67.1854 32.5335 79.4778 32.1714 90.968 35.6079C102.458 39.0443 112.533 46.0958 119.697 55.7147C126.86 65.3337 130.729 77.0069 130.729 89H150Z"/>
</mask>
<path d="M150 89C150 72.8596 144.793 57.1498 135.153 44.2046C125.513 31.2593 111.953 21.7694 96.4898 17.1447C81.0262 12.52 64.4831 13.0072 49.3185 18.534C34.1538 24.0608 21.1767 34.3323 12.315 47.8224C3.45337 61.3126 -0.819919 77.3016 0.130003 93.414C1.07993 109.526 7.20238 124.903 17.5878 137.258C27.9732 149.613 42.0673 158.289 57.7764 161.996C73.4854 165.702 89.9711 164.242 104.784 157.832L97.1312 140.146C86.1243 144.909 73.8746 145.994 62.202 143.239C50.5294 140.485 40.0567 134.039 32.3398 124.858C24.6229 115.677 20.0736 104.252 19.3678 92.2798C18.662 80.3075 21.8372 68.4268 28.4219 58.403C35.0065 48.3791 44.6492 40.7469 55.9173 36.6402C67.1854 32.5335 79.4778 32.1714 90.968 35.6079C102.458 39.0443 112.533 46.0958 119.697 55.7147C126.86 65.3337 130.729 77.0069 130.729 89H150Z" stroke="#FF0000" stroke-width="20" mask="url(#path-8-inside-2_70_16)"/>
<path d="M757.905 212.946C771.202 229.012 771.635 250.601 758.871 261.165C746.107 271.729 724.981 267.268 711.683 251.202C700.539 237.738 696.595 207.73 695.475 191.663C695.207 187.81 698.714 184.902 702.453 185.868C718.574 190.033 746.625 199.318 757.905 212.946Z" fill="#FF0000"/>
<path d="M680.707 189.177C683.752 196.944 682.053 204.874 676.911 206.89C671.769 208.906 665.132 204.244 662.087 196.478C660.255 191.803 660.384 184.552 660.973 178.608C661.397 174.331 666.174 172.445 669.399 175.287C673.891 179.245 678.844 184.426 680.707 189.177Z" fill="#FF0000"/>
<path d="M703.547 156.392C710.782 160.544 714.419 167.793 711.67 172.583C708.921 177.374 700.827 177.89 693.592 173.738C689.237 171.239 684.801 165.502 681.54 160.497C679.194 156.896 681.741 152.435 686.034 152.633C692.015 152.91 699.121 153.852 703.547 156.392Z" fill="#FF0000"/>
</svg>
