<?xml version="1.0" encoding="UTF-8" standalone="no"?>
<!DOCTYPE svg PUBLIC "-//W3C//DTD SVG 20010904//EN"
              "http://www.w3.org/TR/2001/REC-SVG-20010904/DTD/svg10.dtd">

<svg xmlns="http://www.w3.org/2000/svg"
     width="2.77778in" height="1.875in"
     viewBox="0 0 200 135">
  <path id="Zaznaczenie #1"
        fill="brown" stroke="white" stroke-width="1"
        d="M 55.00,39.00
           C 55.00,39.00 152.00,39.00 152.00,39.00
             162.51,39.14 172.85,45.70 173.00,57.00
             173.03,59.25 173.14,62.93 172.42,65.00
             170.30,71.07 160.04,76.61 154.00,77.67
             154.00,77.67 144.00,78.56 144.00,78.56
             139.38,80.06 133.19,85.74 131.00,90.00
             131.00,90.00 80.00,90.00 80.00,90.00
             77.93,83.70 73.85,85.22 66.51,76.00
             57.06,64.12 55.00,53.73 55.00,39.00 Z
           M 155.38,45.25
           C 155.62,45.75 153.00,57.50 153.00,57.50
             153.00,57.50 149.50,66.62 149.50,66.62
             149.50,66.62 146.12,71.62 146.12,71.62
             146.12,71.62 149.12,72.62 149.12,72.62
             149.12,72.62 159.38,67.88 159.50,67.88
             159.62,67.88 163.50,64.62 163.88,64.50
             164.25,64.38 166.88,60.00 166.88,60.00
             166.88,60.00 164.12,53.12 163.25,52.38
             162.38,51.62 156.12,45.88 156.12,45.88M 59.88,100.38
           C 59.88,100.38 74.50,96.88 74.50,96.88
             74.50,96.88 83.62,96.88 83.62,96.88
             83.62,96.88 107.75,96.75 107.75,96.75
             107.75,96.75 128.75,97.00 128.75,97.00
             128.75,97.00 148.88,99.62 148.88,99.62
             148.88,99.62 129.38,103.38 129.38,103.38
             129.38,103.38 79.75,103.75 79.75,103.75
             79.75,103.75 60.75,101.00 60.75,101.00" />
</svg>
